<?xml version="1.0" encoding="utf-8"?>
<!-- Generator: Adobe Illustrator 16.0.0, SVG Export Plug-In . SVG Version: 6.00 Build 0)  -->
<!DOCTYPE svg PUBLIC "-//W3C//DTD SVG 1.1//EN" "http://www.w3.org/Graphics/SVG/1.1/DTD/svg11.dtd">
<svg version="1.1" xmlns="http://www.w3.org/2000/svg" xmlns:xlink="http://www.w3.org/1999/xlink" x="0px" y="0px" width="155px"
	 height="155px" viewBox="0 0 155 155" enable-background="new 0 0 155 155" xml:space="preserve">
<g id="Layer_4">
</g>
<g id="MOJITO">
</g>
<g id="Layer_1">
	<g>
		<circle fill="none" stroke="#B3B3B3" stroke-miterlimit="10" cx="77.5" cy="77.5" r="50"/>
	</g>
	<g>
		<path fill-rule="evenodd" clip-rule="evenodd" fill="#B3B3B3" d="M79,68.155c1.871,1.766,3.709,3.498,5.641,5.319
			c-2.23,2.473-4.361,4.839-6.496,7.201c-5.719,6.322-11.436,12.646-17.162,18.961c-1.854,2.046-3.328,2.07-5.237,0.12
			c-0.786-0.803-1.582-1.595-2.339-2.424c-1.231-1.349-1.215-2.919,0.094-4.21c5.095-5.023,10.205-10.029,15.317-15.035
			C72.234,74.744,75.662,71.411,79,68.155z"/>
		<path fill-rule="evenodd" clip-rule="evenodd" fill="#B3B3B3" d="M85.988,72.352c-1.939-2.078-3.688-3.951-5.652-6.053
			c0.332-0.255,0.89-0.575,1.309-1.025c1.301-1.394,1.258-2.836-0.143-4.138c-2.818-2.612-6.216-3.949-9.992-4.375
			c-1.638-0.184-1.644-0.15-1.371-1.877c4.043-1.021,8.134-1.521,12.291-0.581c2.906,0.657,5.438,2.026,7.553,4.139
			c1.445,1.439,2.938,2.836,4.293,4.355c0.508,0.57,0.773,1.41,0.986,2.174c0.244,0.871,0.186,1.832,0.472,2.684
			c0.509,1.528,1.647,2.041,3.228,1.631c1.182-0.306,2.193,0.248,3.148,1.726c0.643,0.991,0.457,1.933-0.296,2.737
			c-1.311,1.394-2.651,2.761-4.03,4.088c-0.867,0.837-1.875,0.837-2.832,0.133c-1.55-1.139-1.844-1.986-1.35-3.877
			c0.031-0.117,0.066-0.25,0.041-0.363c-0.359-1.713-1.555-2.713-3.043-3.384c-1.278-0.575-2.523-0.508-3.523,0.634
			C86.719,71.384,86.402,71.825,85.988,72.352z"/>
	</g>
</g>
<g id="grid" display="none">
</g>
</svg>
