<?xml version="1.0" encoding="utf-8"?>
<!-- Generator: Adobe Illustrator 16.0.0, SVG Export Plug-In . SVG Version: 6.00 Build 0)  -->
<!DOCTYPE svg PUBLIC "-//W3C//DTD SVG 1.1//EN" "http://www.w3.org/Graphics/SVG/1.1/DTD/svg11.dtd">
<svg version="1.1" xmlns="http://www.w3.org/2000/svg" xmlns:xlink="http://www.w3.org/1999/xlink" x="0px" y="0px" width="155px"
	 height="155px" viewBox="0 0 155 155" enable-background="new 0 0 155 155" xml:space="preserve">
<g id="Layer_4">
</g>
<g id="MOJITO">
</g>
<g id="Layer_1">
	<g>
		<circle fill="none" stroke="#B3B3B3" stroke-miterlimit="10" cx="77.5" cy="77.5" r="50"/>
	</g>
	<path fill-rule="evenodd" clip-rule="evenodd" fill="#B3B3B3" d="M94.56,62.365c-2.056-1.725-4.126-3.431-6.208-5.122
		c-0.297-0.242-0.688-0.37-1.086-0.576c-0.376,0.192-0.76,0.3-1.018,0.541c-0.354,0.332-0.601,0.773-0.914,1.15
		c-3.193,3.827-6.388,7.652-9.586,11.476c-4.676,5.59-9.361,11.172-14.016,16.779c-0.369,0.444-0.673,1.035-0.771,1.6
		c-0.48,2.746-0.865,5.508-1.316,8.26c-0.104,0.633-0.027,1.153,0.488,1.561c0.49,0.387,0.985,0.368,1.562,0.12
		c2.646-1.14,5.313-2.233,7.961-3.369c0.313-0.134,0.604-0.388,0.825-0.651c2.992-3.559,5.97-7.131,8.952-10.696
		c5.12-6.121,10.245-12.239,15.363-18.361C95.661,64.041,95.602,63.237,94.56,62.365z M91.558,64.611
		c-0.681,0.797-1.351,1.602-2.065,2.452c-1.307-0.993-2.58-1.964-3.857-2.933c-0.178-0.135-0.408-0.235-0.52-0.412
		c-0.103-0.166-0.182-0.492-0.091-0.608c0.706-0.914,1.457-1.794,2.241-2.742c1.463,1.211,2.818,2.338,4.18,3.457
		C91.734,64.063,91.829,64.294,91.558,64.611z"/>
	<path fill-rule="evenodd" clip-rule="evenodd" fill="#FFFFFF" d="M87.266,60.368c1.463,1.211,2.818,2.338,4.18,3.457
		c0.289,0.237,0.384,0.469,0.112,0.786c-0.681,0.797-1.351,1.602-2.065,2.452c-1.307-0.993-2.58-1.964-3.857-2.933
		c-0.178-0.135-0.408-0.235-0.52-0.412c-0.103-0.166-0.182-0.492-0.091-0.608C85.73,62.196,86.481,61.316,87.266,60.368z"/>
</g>
<g id="grid" display="none">
</g>
</svg>
