<?xml version="1.0" encoding="utf-8"?>
<!-- Generator: Adobe Illustrator 16.0.0, SVG Export Plug-In . SVG Version: 6.00 Build 0)  -->
<!DOCTYPE svg PUBLIC "-//W3C//DTD SVG 1.1//EN" "http://www.w3.org/Graphics/SVG/1.1/DTD/svg11.dtd">
<svg version="1.1" xmlns="http://www.w3.org/2000/svg" xmlns:xlink="http://www.w3.org/1999/xlink" x="0px" y="0px" width="155px"
	 height="155px" viewBox="0 0 155 155" enable-background="new 0 0 155 155" xml:space="preserve">
<g id="Layer_4">
</g>
<g id="MOJITO">
</g>
<g id="Layer_1">
	<g>
		<circle fill="none" stroke="#B3B3B3" stroke-miterlimit="10" cx="77.5" cy="77.5" r="50"/>
	</g>
	<path fill-rule="evenodd" clip-rule="evenodd" fill="#B3B3B3" d="M71.381,89.321c-7.365,0.58-11.127-2.256-10.691-10.549
		c-0.495-0.252-1.051-0.508-1.584-0.809c-2.526-1.414-3.781-4.259-3.08-6.947c0.74-2.849,3.301-4.859,6.131-4.822
		c2.865,0.038,5.34,2.057,6.048,4.932c0.658,2.68-0.657,5.529-3.203,6.892c-0.487,0.262-1.007,0.464-1.476,0.679
		c-0.979,6.144,1.438,8.775,7.912,7.78c0.688-2.352,2.271-4.011,4.787-4.714c0-1.06,0-2.019,0-2.945
		c-4.078-2.152-5.584-4.694-4.715-7.895c0.766-2.813,3.389-4.81,6.219-4.727c2.881,0.085,5.287,2.116,5.953,5.022
		c0.727,3.173-0.777,5.616-4.698,7.53c0,0.916,0,1.879,0,2.955c2.35,0.802,4.058,2.328,4.713,4.737
		c6.448,1.106,8.732-1.712,8.005-7.639c-0.587-0.306-1.287-0.602-1.916-1.009c-2.193-1.427-3.223-3.473-2.916-6.077
		c0.295-2.525,1.75-4.265,4.105-5.114c2.463-0.888,4.648-0.244,6.57,1.518c2.314,2.122,2.35,7.773-1.205,9.678
		c-0.555,0.296-1.123,0.564-1.949,0.977c0,0.895,0.038,1.924-0.008,2.949c-0.141,3.306-1.615,5.762-4.74,7.025
		c-0.818,0.33-1.764,0.401-2.659,0.467c-1.035,0.077-2.081,0.018-3.159,0.018c-1.115,2.992-3.018,4.902-6.222,4.906
		C74.408,94.146,72.446,92.317,71.381,89.321z"/>
	<path fill-rule="evenodd" clip-rule="evenodd" fill="#B3B3B3" d="M77.471,91.601c2.02,0.057,3.783-1.652,3.794-3.677
		c0.011-1.923-1.63-3.604-3.589-3.681c-1.904-0.073-3.668,1.548-3.774,3.474C73.787,89.739,75.446,91.544,77.471,91.601z"/>
	<path fill-rule="evenodd" clip-rule="evenodd" fill="#B3B3B3" d="M93.021,68.854c-2.107,0.02-3.683,1.658-3.617,3.761
		c0.062,1.978,1.676,3.52,3.671,3.506c2.113-0.013,3.648-1.624,3.589-3.772C96.605,70.31,95.069,68.835,93.021,68.854z"/>
	<path fill-rule="evenodd" clip-rule="evenodd" fill="#B3B3B3" d="M81.275,72.47c-0.014-2.03-1.746-3.67-3.814-3.611
		c-1.994,0.057-3.568,1.662-3.563,3.637c0.003,2.032,1.731,3.682,3.801,3.626C79.665,76.067,81.291,74.409,81.275,72.47z"/>
	<path fill-rule="evenodd" clip-rule="evenodd" fill="#B3B3B3" d="M65.796,72.41c-0.036-2.002-1.816-3.636-3.872-3.551
		c-1.947,0.08-3.553,1.771-3.514,3.697c0.039,1.95,1.682,3.549,3.659,3.564C64.129,76.139,65.835,74.442,65.796,72.41z"/>
</g>
<g id="grid" display="none">
</g>
</svg>
