<?xml version="1.0" encoding="utf-8"?>
<!-- Generator: Adobe Illustrator 16.0.0, SVG Export Plug-In . SVG Version: 6.00 Build 0)  -->
<!DOCTYPE svg PUBLIC "-//W3C//DTD SVG 1.1//EN" "http://www.w3.org/Graphics/SVG/1.1/DTD/svg11.dtd">
<svg version="1.1" xmlns="http://www.w3.org/2000/svg" xmlns:xlink="http://www.w3.org/1999/xlink" x="0px" y="0px" width="155px"
	 height="155px" viewBox="0 0 155 155" enable-background="new 0 0 155 155" xml:space="preserve">
<g id="Layer_4">
</g>
<g id="MOJITO">
</g>
<g id="Layer_1">
	<g>
		<circle fill="none" stroke="#B3B3B3" stroke-miterlimit="10" cx="77.5" cy="77" r="50"/>
	</g>
	<path fill-rule="evenodd" clip-rule="evenodd" fill="#FFFFFF" d="M87.266,59.868c1.463,1.211,2.818,2.338,4.18,3.457
		c0.289,0.237,0.384,0.469,0.112,0.786c-0.681,0.797-1.351,1.602-2.065,2.452c-1.307-0.993-2.58-1.964-3.857-2.933
		c-0.178-0.135-0.408-0.235-0.52-0.412c-0.103-0.166-0.182-0.492-0.091-0.608C85.73,61.696,86.481,60.816,87.266,59.868z"/>
	<g>
		<path fill-rule="evenodd" clip-rule="evenodd" fill="#B3B3B3" d="M71.705,76.195C78.82,70.093,86,63.932,93.096,57.846
			c1.45,1.451,2.87,2.871,4.381,4.383c-6.047,7.052-12.22,14.254-18.344,21.394C76.645,81.135,74.192,78.686,71.705,76.195z"/>
		<path fill-rule="evenodd" clip-rule="evenodd" fill="#B3B3B3" d="M77.896,84.732c-3.157,2.18-6.314,4.358-9.4,6.49
			c-1.48-1.48-2.909-2.904-4.396-4.391c2.136-3.09,4.327-6.262,6.487-9.388C73.044,79.895,75.441,82.287,77.896,84.732z"/>
		<path fill-rule="evenodd" clip-rule="evenodd" fill="#B3B3B3" d="M97.971,60.526c-1.175-1.176-2.401-2.397-3.552-3.551
			C96.403,56.716,98.254,58.843,97.971,60.526z"/>
		<path fill-rule="evenodd" clip-rule="evenodd" fill="#B3B3B3" d="M64.094,88.194c-1.393,1.047-2.787,2.063-4.132,3.139
			c-0.309,0.247-0.564,0.685-0.637,1.07c-0.381,2.048-0.98,3.982-2.325,5.642c1.841-0.991,3.694-1.744,5.805-1.649
			c0.152,0.008,0.364-0.084,0.455-0.201c1.3-1.658,2.582-3.329,3.803-4.915C66.037,90.215,65.088,89.228,64.094,88.194z"/>
	</g>
</g>
<g id="grid" display="none">
</g>
</svg>
