<?xml version="1.0" encoding="utf-8"?>
<!-- Generator: Adobe Illustrator 16.0.0, SVG Export Plug-In . SVG Version: 6.00 Build 0)  -->
<!DOCTYPE svg PUBLIC "-//W3C//DTD SVG 1.1//EN" "http://www.w3.org/Graphics/SVG/1.1/DTD/svg11.dtd">
<svg version="1.1" id="Layer_1" xmlns="http://www.w3.org/2000/svg" xmlns:xlink="http://www.w3.org/1999/xlink" x="0px" y="0px"
	 width="540px" height="186px" viewBox="0 0 540 186" enable-background="new 0 0 540 186" xml:space="preserve">
<g>
	<path fill-rule="evenodd" clip-rule="evenodd" fill="#FFFFFF" d="M512.135,78.691c-7.723,6.219-12.959,13.591-11.891,23.818
		c1.02,9.756,5.48,17.346,15.209,21.573c-1.282,2.923-2.474,5.98-3.938,8.902c-2.87,5.73-6.31,11.087-10.925,15.614
		c-4.448,4.363-9.565,6.196-15.718,4.301c-2.381-0.732-4.793-1.369-7.143-2.188c-5.097-1.776-10.106-1.676-15.109,0.356
		c-1.715,0.696-3.495,1.229-5.242,1.849c-6.615,2.347-12.363,0.613-16.951-4.317c-3.013-3.236-5.715-6.896-7.901-10.74
		c-4.957-8.715-8.581-18.011-9.961-28.012c-1.449-10.507-0.206-20.615,5.444-29.844c5.878-9.601,15.201-13.554,26.236-11.198
		c2.378,0.508,4.776,1.015,7.069,1.803c5.97,2.052,11.786,1.731,17.688-0.38c3.034-1.086,6.229-1.935,9.42-2.332
		C498.349,66.659,505.932,70.895,512.135,78.691z"/>
	<path fill-rule="evenodd" clip-rule="evenodd" fill="#FFFFFF" d="M489.65,42.668c3.4,11.408-9.869,27.701-21.586,26.504
		C467.508,56.72,474.576,45.442,489.65,42.668z"/>
</g>
<path fill-rule="evenodd" clip-rule="evenodd" fill="#FFFFFF" d="M270.633,74.28c1.131-1.045,2.238-2.115,3.397-3.128
	c4.814-4.208,10.41-6.617,16.792-7.105c14.409-1.097,27.18,8.268,30.457,22.324c1.253,5.373,0.829,10.675-0.778,15.922
	c-2.369,7.732-6.245,14.659-11.146,21.043c-6.556,8.543-14.529,15.565-23.365,21.651c-4.734,3.264-9.667,6.199-14.771,8.854
	c-0.215,0.109-0.575,0.156-0.772,0.054c-9.224-4.827-17.912-10.454-25.749-17.335c-6.988-6.132-13.077-13.027-17.793-21.079
	c-3.049-5.205-5.426-10.687-6.71-16.604c-3.459-15.928,7.103-31.758,23.176-34.452c10.771-1.805,19.843,1.582,27.119,9.735
	c0.088,0.095,0.179,0.189,0.266,0.283C270.713,74.389,270.674,74.333,270.633,74.28z"/>
<path fill-rule="evenodd" clip-rule="evenodd" fill="#FFFFFF" d="M54.398,57.951c-8-6-10.543-8.364-15.08-17.049
	c0.443,0.385,0.893,0.763,1.33,1.153c4.493,4.029,8.898,8.162,13.52,12.037c1.736,1.454,4.629-1.532,6.738-0.642
	c6.18-2,8.334,3.976,9.205-1.02c0.563-3.238,0.053-6.702-0.258-10.037c-0.165-1.784-0.927-3.511-1.494-5.534
	c-0.72,0.787-1.263,1.382-1.695,1.854c-3.439-4.564-6.79-9.012-10.372-13.769c-0.59,1.075-0.917,1.675-1.285,2.347
	c-4.248-2.691-8.394-5.318-12.741-8.073c-0.32,1.125-0.498,1.746-0.641,2.245c-2.9-0.91-5.7-1.812-8.517-2.661
	c-0.708-0.215-3.233-1.603-3.97-1.723c-1.322-0.218-2.076,0.337-2.256,1.672c-0.447,3.325,0.868,7.976,0.405,11.391
	c-0.446-0.164-1.112-0.41-2.314-0.854c0.379,2.348,0.561,4.407,1.071,6.381c0.5,1.936,1.333,3.786,2.15,6.03
	c-1.161-0.195-2.169-0.366-3.648-0.615c2.927,5.72,5.854,11.078,11.413,14.89c-0.861,0.457-1.596,0.844-2.599,1.374
	c0.55,0.456,0.99,0.913,1.514,1.241c5.138,3.215,10.645,5.548,16.729,5.942c2.435,0.158,2.308,0.289,2.794-2.144"/>
<path fill-rule="evenodd" clip-rule="evenodd" fill="#EEECDF" d="M92.811,132.931c-0.04-0.085-0.079-0.172-0.119-0.257
	c0.043,0.084,0.085,0.167,0.128,0.25C92.816,132.927,92.813,132.929,92.811,132.931z"/>
<path fill-rule="evenodd" clip-rule="evenodd" fill="#FFFFFF" d="M94.934,128.92c-0.158,0.119-0.328,0.207-0.484,0.269
	c-0.146,0.118-0.281,0.208-0.43,0.111c0.111-0.011,0.264-0.046,0.43-0.111c0.137-0.11,0.285-0.245,0.469-0.279
	c0.008-0.001,0.015-0.002,0.021-0.002c0.066-0.135,0.133-0.269,0.199-0.402c0.019-1.168,0.053-2.336,0.053-3.503
	c-0.002-12.401-0.009-24.803-0.016-37.205c0.016-0.297,0.031-0.594,0.047-0.891c-0.025-0.672-0.051-1.344-0.077-2.016
	c-0.005-0.287-0.011-0.572-0.017-0.857c0.021-2.303,0.06-4.605,0.057-6.907c-0.004-3.367-0.037-6.733-0.059-10.101
	c-0.15-0.035-0.299-0.071-0.447-0.106c-0.549,0.025-1.098,0.071-1.646,0.071c-10.293,0.006-20.586,0.014-30.878-0.012
	c-0.886-0.003-1.232,0.166-1.226,1.166c0.049,6.986,0.027,13.973,0.024,20.959c-0.003,11.529-0.009,23.059-0.014,34.589
	c0.507,1.473-0.163,2.942-0.011,4.415c0.009,3.233,0.029,6.469,0.023,9.702c-0.002,1.88,0.886,3.205,2.474,4.11
	c1.104,0.631,2.309,0.854,3.571,0.854c5.545-0.008,11.089-0.003,16.634-0.004c1.858,0,3.719,0.024,5.577-0.009
	c3.877-0.069,5.971-2.196,5.981-6.026c0.007-2.617,0.02-5.233,0.029-7.851c-0.093,0.008-0.187,0.015-0.28,0.023
	C94.938,128.912,94.936,128.916,94.934,128.92z"/>
<path fill-rule="evenodd" clip-rule="evenodd" fill="#FFFFFF" d="M126.744,28.971c-0.499-1.58-1.981-2.273-3.943-1.868
	c-9.507,1.967-19.014,3.937-28.526,5.877c-0.684,0.14-1.056,0.406-1.308,1.078c-1.318,3.513-2.664,7.017-4.06,10.499
	c-0.544,1.358-0.823,2.824-1.626,4.079c-0.019,0.284-0.127,0.53-0.315,0.742c-0.081,0.513-0.224,1.001-0.556,1.414
	c-0.078,0.281-0.157,0.562-0.236,0.843c-0.003,0.025-0.012,0.044-0.016,0.067c2.044-0.104,4.227,0.206,6.314,0.23
	c-0.07-0.153-0.039-0.384,0.129-0.734c-0.005-0.258,0.156-0.436,0.303-0.62c0.058-0.198,0.115-0.396,0.174-0.594
	c0.309-0.767,0.621-1.533,0.932-2.299c1.109-2.856,2.244-5.701,3.308-8.574c0.251-0.676,0.63-0.96,1.296-1.101
	c4.244-0.896,8.482-1.819,12.722-2.737c4.406-0.956,8.815-1.903,13.218-2.882C126.397,31.982,127.256,30.594,126.744,28.971z"/>
<path fill-rule="evenodd" clip-rule="evenodd" fill="#FFFFFF" d="M62.81,51.177c-2.515,0.019-5.028,0.011-7.544,0.011
	c-1.941,0-2.785,0.676-3.175,2.594c-0.089,0.435-0.103,0.89-0.103,1.335c-0.006,6.097-0.03,12.192,0.02,18.289
	c0.006,0.661-0.016,0.639-0.016,1.232c-0.074,2.125-0.074,3.297-0.025,5.979c-0.013,2.059-0.009,4.119-0.016,6.18
	c0.09,0.142,0.088,0.284,0.002,0.426c0,0.133,0,0.266,0.001,0.397c0.087,0.146,0.087,0.289,0,0.435
	c0.008,7.923,0.019,15.846,0.022,23.77c0,0.688-0.037,1.375-0.059,2.063c0.012,0.153,0.022,0.307,0.035,0.461
	c0.008,0.517,0.025,1.032,0.026,1.549c0.001,10.371-0.003,20.742,0.007,31.112c0.002,3.354,1.793,5.681,5.02,6.588
	c0.902,0.254,1.823,0.354,2.758,0.354c12.094-0.001,24.188,0.001,36.281-0.007c0.617,0,1.239-0.054,1.852-0.141
	c4.069-0.58,6.346-3.199,6.346-7.296c0.004-9.991,0.003-19.981,0.003-29.973c0-17.95,0-35.901-0.001-53.852
	c0-2.652,0.016-5.305-0.005-7.957c-0.018-2.134-1.437-3.539-3.519-3.538c-2.447,0.001-4.894-0.024-7.34,0.018 M73.861,51.207
	c-3.006-0.071-8.044-0.008-11.052-0.029 M99.494,54.741c0.936-0.002,1.205,0.224,1.203,1.186c-0.039,19.399-0.047,38.801-0.049,58.2
	c-0.001,10.786,0.019,21.571,0.026,32.356c0.002,2.354-0.949,3.451-3.298,3.779c-0.508,0.07-1.03,0.069-1.547,0.07
	c-11.922,0.003-23.846,0.004-35.769-0.003c-0.618-0.001-1.251,0.002-1.851-0.12c-1.726-0.352-2.625-1.365-2.626-2.95
	c-0.008-18.364-0.007-36.729-0.009-55.093c0.026-0.622,0.053-1.243,0.08-1.864c0-0.264,0-0.526,0-0.79
	c-0.024-0.622-0.049-1.245-0.074-1.868c0.011-6.137,0.021-12.274,0.031-18.41c0.008-0.074,0.016-0.149,0.023-0.224
	c-0.018-4.548-0.033-9.096-0.061-13.644c-0.002-0.439,0.156-0.636,0.602-0.606c0.274,0.019,0.552,0.002,0.827,0.002
	C71.168,54.762,85.331,54.771,99.494,54.741z"/>
</svg>
