<?xml version="1.0" encoding="utf-8"?>
<!-- Generator: Adobe Illustrator 16.0.0, SVG Export Plug-In . SVG Version: 6.00 Build 0)  -->
<!DOCTYPE svg PUBLIC "-//W3C//DTD SVG 1.1//EN" "http://www.w3.org/Graphics/SVG/1.1/DTD/svg11.dtd">
<svg version="1.1" id="Layer_1" xmlns="http://www.w3.org/2000/svg" xmlns:xlink="http://www.w3.org/1999/xlink" x="0px" y="0px"
	 width="48.5px" height="46.5px" viewBox="0 0 48.5 46.5" enable-background="new 0 0 48.5 46.5" xml:space="preserve">
<path fill-rule="evenodd" clip-rule="evenodd" fill="#93C210" d="M17.493,14.667c-2.227-1.67-2.936-2.329-4.197-4.746
	c0.123,0.107,0.248,0.213,0.369,0.321c1.25,1.122,2.479,2.271,3.764,3.351c0.483,0.406,1.288-0.427,1.877-0.178
	c1.721-0.557,2.32,1.107,2.562-0.284c0.156-0.9,0.016-1.865-0.072-2.795c-0.046-0.496-0.257-0.978-0.415-1.54
	c-0.2,0.22-0.352,0.385-0.473,0.517c-0.958-1.271-1.89-2.51-2.887-3.834c-0.165,0.301-0.256,0.468-0.358,0.654
	c-1.183-0.749-2.336-1.48-3.547-2.248c-0.09,0.313-0.138,0.486-0.178,0.624c-0.809-0.252-1.587-0.503-2.371-0.74
	c-0.197-0.06-0.9-0.446-1.104-0.479c-0.369-0.062-0.578,0.094-0.629,0.466c-0.125,0.925,0.242,2.219,0.112,3.17
	C9.822,6.88,9.636,6.812,9.302,6.688c0.105,0.653,0.155,1.227,0.299,1.775c0.138,0.539,0.371,1.055,0.598,1.679
	c-0.323-0.055-0.604-0.101-1.016-0.171c0.815,1.593,1.631,3.085,3.178,4.146c-0.24,0.127-0.444,0.234-0.724,0.382
	c0.151,0.128,0.274,0.255,0.422,0.345c1.431,0.895,2.962,1.545,4.656,1.655c0.679,0.044,0.644,0.081,0.778-0.598"/>
<path fill-rule="evenodd" clip-rule="evenodd" fill="#EEECDF" d="M28.187,35.541c-0.011-0.024-0.021-0.048-0.033-0.072
	c0.012,0.024,0.024,0.048,0.035,0.07C28.188,35.541,28.187,35.541,28.187,35.541z"/>
<path fill-rule="evenodd" clip-rule="evenodd" fill="#65BABF" d="M28.835,34.363c0.004-0.312,0.016-0.623,0.016-0.935
	c-0.002-3.307-0.002-6.613-0.005-9.922c0.005-0.077,0.009-0.158,0.014-0.235c-0.009-0.181-0.016-0.36-0.022-0.539
	c-0.002-0.076-0.004-0.151-0.004-0.228c0.004-0.614,0.016-1.229,0.016-1.842c-0.003-0.897-0.012-1.797-0.018-2.693
	c-0.042-0.011-0.082-0.019-0.123-0.029c-0.154,0.009-0.306,0.019-0.46,0.019c-2.865,0.002-5.73,0.005-8.596-0.002
	c-0.246,0-0.343,0.044-0.341,0.312c0.014,1.862,0.007,3.725,0.007,5.588c-0.002,3.075-0.002,6.147-0.004,9.225
	c0.141,0.392-0.046,0.783-0.003,1.177c0.003,0.863,0.007,1.724,0.007,2.586c-0.002,0.502,0.246,0.855,0.688,1.098
	c0.307,0.168,0.644,0.228,0.995,0.228c1.542-0.003,3.087,0,4.63-0.003c0.516,0,1.034,0.008,1.553-0.002
	c1.079-0.017,1.661-0.585,1.664-1.606c0.002-0.698,0.006-1.395,0.008-2.093c-0.025,0.001-0.05,0.003-0.076,0.005"/>
<path fill-rule="evenodd" clip-rule="evenodd" fill="#65BABF" d="M28.773,35.197"/>
<path fill-rule="evenodd" clip-rule="evenodd" fill="#185263" d="M37.633,6.599c-0.139-0.439-0.552-0.633-1.097-0.519
	c-2.647,0.547-5.293,1.095-7.943,1.635c-0.188,0.04-0.292,0.114-0.362,0.301c-0.366,0.979-0.742,1.954-1.132,2.923
	c-0.148,0.378-0.229,0.786-0.452,1.136c-0.005,0.079-0.035,0.147-0.088,0.207c-0.022,0.143-0.062,0.278-0.153,0.393
	c-0.022,0.079-0.045,0.156-0.066,0.235c0,0.007-0.002,0.014-0.004,0.02c0.568-0.03,1.178,0.058,1.758,0.064
	c-0.021-0.044-0.012-0.108,0.035-0.205c0-0.072,0.043-0.12,0.085-0.173c0.016-0.056,0.031-0.11,0.049-0.165
	c0.085-0.213,0.173-0.427,0.259-0.64c0.308-0.795,0.624-1.589,0.921-2.389c0.07-0.187,0.176-0.266,0.36-0.305
	c1.182-0.251,2.362-0.508,3.542-0.763c1.226-0.266,2.454-0.529,3.681-0.802C37.536,7.438,37.775,7.052,37.633,6.599z"/>
<path fill-rule="evenodd" clip-rule="evenodd" fill="#B6F4FF" d="M19.835,12.782c-0.701,0.004-1.399,0.002-2.101,0.002
	c-0.54,0-0.775,0.188-0.884,0.723c-0.023,0.121-0.028,0.248-0.028,0.371c-0.002,1.696-0.009,3.396,0.005,5.092
	c0.002,0.185-0.005,0.178-0.005,0.345c-0.02,0.591-0.02,0.916-0.007,1.663c-0.004,0.573-0.002,1.147-0.004,1.721
	c0.026,0.039,0.024,0.079,0,0.118c0,0.038,0,0.075,0,0.11c0.026,0.042,0.026,0.081,0,0.121c0.002,2.206,0.007,4.412,0.007,6.618
	c0,0.19-0.009,0.382-0.016,0.573c0.002,0.044,0.007,0.086,0.009,0.13c0.002,0.143,0.009,0.287,0.009,0.431
	c0,2.887-0.002,5.774,0.002,8.661c0,0.934,0.499,1.58,1.397,1.835c0.251,0.07,0.508,0.097,0.768,0.097c3.365,0,6.732,0,10.101-0.002
	c0.171,0,0.345-0.014,0.514-0.038c1.134-0.162,1.767-0.892,1.767-2.032c0.002-2.781,0.002-5.562,0.002-8.343
	c0-4.999,0-9.995,0-14.992c0-0.738,0.005-1.477-0.002-2.215c-0.004-0.596-0.399-0.986-0.979-0.986c-0.682,0-1.362-0.007-2.044,0.004
	 M22.911,12.791c-0.837-0.021-2.239-0.003-3.076-0.009 M30.048,13.772c0.26,0,0.334,0.064,0.334,0.332
	c-0.011,5.401-0.014,10.802-0.014,16.203c0,3.001,0.005,6.005,0.007,9.006c0.003,0.655-0.264,0.961-0.916,1.053
	c-0.143,0.02-0.288,0.02-0.431,0.02c-3.32,0-6.641,0-9.958,0c-0.174-0.002-0.35,0-0.517-0.035c-0.479-0.097-0.729-0.38-0.731-0.819
	c0-5.113,0-10.226-0.002-15.339c0.009-0.172,0.015-0.345,0.024-0.519c0-0.072,0-0.147,0-0.22c-0.01-0.174-0.016-0.348-0.022-0.521
	c0.005-1.708,0.007-3.417,0.009-5.124c0.002-0.022,0.004-0.042,0.007-0.064c-0.005-1.266-0.009-2.531-0.018-3.797
	c0-0.123,0.044-0.178,0.169-0.169c0.074,0.005,0.154,0,0.229,0C22.162,13.779,26.104,13.781,30.048,13.772z"/>
</svg>
